HIERARCHY
ROOT SpineBase
{
  OFFSET 0.000000 0.000000 0.000000
  CHANNELS 6 Xposition Yposition Zposition Zrotation Xrotation Yrotation
  JOINT SpineMid
  {
    OFFSET -0.000000 33.263707 0.000000
    CHANNELS 3 Zrotation Xrotation Yrotation
    JOINT SpineShoulder
    {
      OFFSET 0.310420 24.597959 -0.920654
      CHANNELS 3 Zrotation Xrotation Yrotation
      JOINT Neck
      {
        OFFSET 0.223489 8.107743 -0.680576
        CHANNELS 3 Zrotation Xrotation Yrotation
        JOINT Head
        {
          OFFSET -1.728161 10.291267 3.045250
          CHANNELS 3 Zrotation Xrotation Yrotation
          End Site
          {
            OFFSET 0 0 0
          }
        }
      }
      JOINT ShoulderLeft
      {
        OFFSET -15.368313 -7.701594 -5.942941
        CHANNELS 3 Zrotation Xrotation Yrotation
        JOINT ElbowLeft
        {
          OFFSET -5.432028 -24.916377 4.950794
          CHANNELS 3 Zrotation Xrotation Yrotation
          JOINT WristLeft
          {
            OFFSET -0.243737 -21.961753 2.856741
            CHANNELS 3 Zrotation Xrotation Yrotation
            JOINT HandLeft
            {
              OFFSET -1.600843 -9.393534 4.835700
              CHANNELS 3 Zrotation Xrotation Yrotation
              JOINT HandTipLeft
              {
                OFFSET -0.729973 -5.738787 0.275954
                CHANNELS 3 Zrotation Xrotation Yrotation
                End Site
                {
                  OFFSET 0 0 0
                }
              }
              JOINT ThumbLeft
              {
                OFFSET 0.203953 3.629637 -1.881574
                CHANNELS 3 Zrotation Xrotation Yrotation
                End Site
                {
                  OFFSET 0 0 0
                }
              }
            }
          }
        }
      }
      JOINT ShoulderRight
      {
        OFFSET 17.050189 -6.718102 -5.214692
        CHANNELS 3 Zrotation Xrotation Yrotation
        JOINT ElbowRight
        {
          OFFSET 4.337802 -25.634362 3.831727
          CHANNELS 3 Zrotation Xrotation Yrotation
          JOINT WristRight
          {
            OFFSET 2.162277 -24.883677 7.216287
            CHANNELS 3 Zrotation Xrotation Yrotation
            JOINT HandRight
            {
              OFFSET 0.336265 -5.949144 1.762786
              CHANNELS 3 Zrotation Xrotation Yrotation
              JOINT HandTipRight
              {
                OFFSET -0.160587 -6.539626 -0.098988
                CHANNELS 3 Zrotation Xrotation Yrotation
                End Site
                {
                  OFFSET 0 0 0
                }
              }
              JOINT ThumbRight
              {
                OFFSET -3.909351 1.967631 -2.465477
                CHANNELS 3 Zrotation Xrotation Yrotation
                End Site
                {
                  OFFSET 0 0 0
                }
              }
            }
          }
        }
      }
    }
  }
  JOINT HipLeft
  {
    OFFSET -5.217694 1.064731 -3.668094
    CHANNELS 3 Zrotation Xrotation Yrotation
    JOINT KneeLeft
    {
      OFFSET -1.218622 -40.411072 -4.650610
      CHANNELS 3 Zrotation Xrotation Yrotation
      JOINT AnkleLeft
      {
        OFFSET 0.352860 -35.338234 -1.267978
        CHANNELS 3 Zrotation Xrotation Yrotation
        JOINT FootLeft
        {
          OFFSET 1.003462 -6.594671 -7.801393
          CHANNELS 3 Zrotation Xrotation Yrotation
          End Site
          {
            OFFSET 0 0 0
          }
        }
      }
    }
  }
  JOINT HipRight
  {
    OFFSET 7.112373 1.530067 -3.791520
    CHANNELS 3 Zrotation Xrotation Yrotation
    JOINT KneeRight
    {
      OFFSET 3.234445 -40.359538 -7.189246
      CHANNELS 3 Zrotation Xrotation Yrotation
      JOINT AnkleRight
      {
        OFFSET 1.221308 -34.708789 -4.320831
        CHANNELS 3 Zrotation Xrotation Yrotation
        JOINT FootRight
        {
          OFFSET 1.128336 -2.744357 -13.772981
          CHANNELS 3 Zrotation Xrotation Yrotation
          End Site
          {
            OFFSET 0 0 0
          }
        }
      }
    }
  }
}
MOTION
Frames: 9
Frame Time: 0.033333
-63.321484 81.341848 250.784205 -0.484724 0.309982 1.258705 0.477805 -0.320543 -1.256057 -0.000000 0.000000 0.000000 -0.000000 0.000000 0.000000 0.000000 0.000000 0.000000 -0.000000 0.000000 0.000000 -0.353372 2.367313 -0.065114 -1.588833 -3.950478 -0.750848 8.369671 1.880729 0.786152 0.000000 0.000000 0.000000 0.000000 0.000000 0.000000 -0.602585 0.636777 0.021067 0.602388 -0.636964 -0.014370 -2.881460 4.017948 -0.531968 5.302548 -0.097562 0.688139 0.000000 0.000000 0.000000 0.000000 0.000000 0.000000 0.477805 -0.320543 -1.256057 -0.000000 0.000000 0.000000 2.082344 28.559408 1.107627 0.000000 0.000000 0.000000 0.477805 -0.320543 -1.256057 -0.000000 0.000000 0.000000 -0.000000 0.000000 0.000000 0.000000 0.000000 0.000000
-63.337634 81.380838 250.686100 -0.544910 0.438979 1.318596 0.534680 -0.451383 -1.314403 -0.000000 0.000000 0.000000 -0.000000 0.000000 0.000000 0.000000 0.000000 0.000000 -0.000000 0.000000 0.000000 -0.489681 2.298748 -0.079592 -1.915723 -3.018311 -1.121674 9.469680 1.731175 1.175384 0.000000 0.000000 0.000000 0.000000 0.000000 0.000000 -0.678115 0.721570 0.025060 0.158527 0.030472 -0.105168 -3.335079 3.968948 -0.687633 7.221138 0.637934 0.980630 0.000000 0.000000 0.000000 0.000000 0.000000 0.000000 0.534680 -0.451383 -1.314403 -0.000000 0.000000 0.000000 2.246130 28.582464 0.929162 0.000000 0.000000 0.000000 0.534680 -0.451383 -1.314403 -0.000000 0.000000 0.000000 -0.000000 0.000000 0.000000 0.000000 0.000000 0.000000
-63.358947 81.441282 250.516165 -0.611870 0.618312 1.272171 0.598028 -0.631710 -1.265572 -0.444576 0.705140 -0.054042 0.445275 -0.704699 0.059516 0.000000 0.000000 0.000000 0.445275 -0.704699 0.059516 -0.649373 2.239426 -0.096875 -2.510526 -2.600038 -1.568219 10.770287 2.687236 1.445832 0.000000 0.000000 0.000000 0.000000 0.000000 0.000000 -0.280154 0.132938 0.089528 0.080135 0.063974 -0.141477 -4.681375 5.042200 -0.952965 7.602805 -2.891376 1.596826 0.000000 0.000000 0.000000 0.000000 0.000000 0.000000 0.598028 -0.631710 -1.265572 -0.000000 0.000000 0.000000 2.370227 28.614779 0.795478 0.000000 0.000000 0.000000 0.598028 -0.631710 -1.265572 -0.000000 0.000000 0.000000 -0.000000 0.000000 0.000000 0.000000 0.000000 0.000000
-63.413725 81.515728 250.312601 -0.671433 0.847870 1.132915 0.113939 -0.112470 -1.157719 0.071373 0.123419 -0.033303 -0.436201 -1.071197 0.290297 0.000000 0.000000 0.000000 0.484813 -0.860513 0.068022 -0.747018 2.223205 -0.107618 -3.102604 -2.029964 -2.013262 10.356203 3.048800 1.788954 0.000000 0.000000 0.000000 0.000000 0.000000 0.000000 -0.145769 0.127416 0.137364 -0.073798 0.124408 -0.180891 -5.758193 5.084030 -1.251172 8.640914 -3.973931 2.034511 0.000000 0.000000 0.000000 0.000000 0.000000 0.000000 0.654612 -0.860922 -1.123029 -0.000000 0.000000 0.000000 2.467575 28.657610 0.692400 0.000000 0.000000 0.000000 0.654612 -0.860922 -1.123029 0.627904 -0.563958 -0.094961 -0.628869 0.562882 0.101141 0.000000 0.000000 0.000000
-63.492437 81.592538 250.091515 -0.671281 1.072309 0.906884 0.159383 -0.168117 -0.930331 0.138506 0.111562 -0.027252 0.371711 -1.017843 0.062520 0.000000 0.000000 0.000000 0.371711 -1.017843 0.062520 -0.475370 2.687556 -0.080760 -4.495904 -3.107729 -2.612776 11.360222 3.210176 2.240810 0.000000 0.000000 0.000000 0.000000 0.000000 0.000000 -0.533463 0.065211 0.103423 0.153539 0.240208 -0.148434 -6.736981 4.905558 -1.554360 8.033185 -3.803707 2.272791 0.000000 0.000000 0.000000 0.000000 0.000000 0.000000 0.245635 -1.981547 -0.832604 0.395582 0.904614 -0.075866 2.511198 28.701758 0.648736 0.000000 0.000000 0.000000 0.654343 -1.082727 -0.894419 0.596570 -0.651292 -0.093842 -0.597674 0.650278 0.100625 0.000000 0.000000 0.000000
-63.578440 81.669317 249.862951 -0.534227 1.276324 0.599599 0.237693 -0.172874 -0.616411 0.208332 0.108598 -0.013667 0.087138 -1.214385 0.041677 0.000000 0.000000 0.000000 -0.417790 -0.256118 -0.274205 -0.211566 1.776090 0.196221 -4.576570 -3.405131 -2.721751 13.038153 4.491880 2.135038 0.000000 0.000000 0.000000 0.000000 0.000000 0.000000 -0.670297 -0.001454 0.126131 0.117696 0.322641 -0.141614 -7.386446 4.218583 -1.843582 8.718125 -1.976469 2.422499 0.000000 0.000000 0.000000 0.000000 0.000000 0.000000 0.112693 -2.552749 -0.517487 1.298456 1.406820 -0.140502 1.541594 28.614317 0.747930 0.000000 0.000000 0.000000 -0.119440 -1.951208 -0.547193 1.147333 -0.025010 -0.154040 -0.515341 0.699005 0.091839 0.000000 0.000000 0.000000
-63.745166 81.730245 249.662288 -0.217130 1.401602 0.132986 0.298402 -0.151462 -0.139300 0.256696 0.098543 0.006450 0.659569 -1.914810 -0.356884 0.000000 0.000000 0.000000 -0.564670 -0.184442 -0.297633 -0.764659 1.189693 0.147307 -3.832963 -2.469891 -2.473662 13.416382 4.004796 2.102591 0.000000 0.000000 0.000000 0.000000 0.000000 0.000000 -0.722254 -0.043218 0.164162 0.175156 0.632303 -0.052891 -7.117451 3.091301 -1.955443 7.042207 -0.444741 2.114060 0.000000 0.000000 0.000000 0.000000 0.000000 0.000000 -0.102945 -3.012393 -0.055191 1.369371 1.697552 -0.156490 1.543499 28.682158 0.582645 0.000000 0.000000 0.000000 -0.301057 -2.147528 -0.112072 0.920535 -0.079833 -0.117172 -0.408804 0.825351 0.082814 0.000000 0.000000 0.000000
-63.999395 81.765848 249.515403 0.364462 1.441121 -0.598004 0.402326 -0.095076 0.610850 0.308130 0.096072 0.041550 1.375187 -2.311408 -0.854389 0.000000 0.000000 0.000000 -0.431074 -0.005967 -0.241040 -2.042661 -0.231316 -0.039156 -2.136310 0.110942 -1.871421 12.892187 1.622578 2.190433 0.000000 0.000000 0.000000 0.000000 0.000000 0.000000 -0.669052 -0.174649 0.216156 -0.050984 1.098830 0.029569 -6.935229 1.601108 -2.118794 8.433102 3.495024 1.775508 0.000000 0.000000 0.000000 0.000000 0.000000 0.000000 -0.480550 -3.349005 0.658367 1.348120 1.942136 -0.159906 1.891187 28.724668 0.045673 0.000000 0.000000 0.000000 -0.648668 -2.267570 0.568371 0.681930 -0.099313 -0.072642 -0.191511 1.275828 -0.689727 0.000000 0.000000 0.000000
-64.344162 81.766456 249.404256 1.243603 1.295497 -1.437918 0.415748 -0.103230 1.477249 0.275104 0.051307 0.083184 3.086387 -2.378170 -1.661867 0.000000 0.000000 0.000000 -0.325451 0.742380 -0.254873 -3.389220 -1.857522 -0.208702 0.186790 2.454896 -1.000911 13.661659 0.346223 1.794574 0.000000 0.000000 0.000000 0.000000 0.000000 0.000000 -0.641569 -0.040440 0.259615 -0.319374 1.470792 0.102554 -6.487382 0.746042 -2.097302 8.353718 6.215093 1.279999 0.000000 0.000000 0.000000 0.000000 0.000000 0.000000 -1.011508 -3.469780 1.466232 1.205519 2.144797 -0.144326 2.115557 28.709608 -0.375784 0.000000 0.000000 0.000000 -1.214924 -2.244488 1.340761 0.462294 -0.098737 -0.024497 -0.174836 1.346708 -1.077773 0.000000 0.000000 0.000000
